<svg height="581pt" viewBox="-18 -45 581.33128 581" width="581pt" xmlns="http://www.w3.org/2000/svg"><path d="m540.953125 130.996094c-16.097656-79.796875-73.71875-131.355469-146.796875-131.355469-38.695312 0-80.628906 15.050781-121.617188 43.59375-41.5625-29.804687-82.714843-44.917969-122.429687-44.917969-73.488281 0-130.855469 52.117188-146.148437 132.757813-22.457032 117.039062 48.8125 272.410156 258.664062 355.671875.152344.058594.300781.117187.457031.164062 6.035157 2.363282 12.730469 2.363282 18.757813 0 .179687-.058594.351562-.121094.523437-.1875 96.316407-39.023437 171.007813-96.210937 216.015625-165.371094 39.5-60.710937 54.625-128.289062 42.589844-190.292968zm-422.164063 140.128906c0 4.832031-3.914062 8.746094-8.746093 8.746094-4.828125 0-8.746094-3.914063-8.746094-8.746094v-72.742188c0-4.832031 3.917969-8.746093 8.746094-8.746093 4.832031 0 8.746093 3.914062 8.746093 8.746093zm36.234376 33.664062c0 4.832032-3.914063 8.746094-8.746094 8.746094-4.828125 0-8.746094-3.914062-8.746094-8.746094v-140.070312c0-4.824219 3.917969-8.746094 8.746094-8.746094 4.832031 0 8.746094 3.921875 8.746094 8.746094zm36.234374 33.660157c0 4.828125-3.914062 8.746093-8.746093 8.746093-4.828125 0-8.746094-3.917968-8.746094-8.746093v-207.390625c0-4.828125 3.917969-8.746094 8.746094-8.746094 4.832031 0 8.746093 3.917969 8.746093 8.746094zm36.234376-33.660157c0 4.832032-3.914063 8.746094-8.746094 8.746094-4.824219 0-8.746094-3.914062-8.746094-8.746094v-140.070312c0-4.824219 3.921875-8.746094 8.746094-8.746094 4.832031 0 8.746094 3.921875 8.746094 8.746094zm34.984374-35.988281c0 4.832031-3.914062 8.746094-8.746093 8.746094-4.824219 0-8.746094-3.914063-8.746094-8.746094v-68.09375c0-4.832031 3.921875-8.746093 8.746094-8.746093 4.832031 0 8.746093 3.914062 8.746093 8.746093zm37.484376 17.804688c0 4.832031-3.914063 8.746093-8.746094 8.746093-4.824219 0-8.746094-3.914062-8.746094-8.746093v-103.703125c0-4.832032 3.921875-8.746094 8.746094-8.746094 4.832031 0 8.746094 3.914062 8.746094 8.746094zm34.984374 18.1875c0 4.832031-3.914062 8.746093-8.746093 8.746093-4.824219 0-8.746094-3.914062-8.746094-8.746093v-140.074219c0-4.824219 3.921875-8.746094 8.746094-8.746094 4.832031 0 8.746093 3.921875 8.746093 8.746094zm36.234376 33.660156c0 4.832031-3.914063 8.746094-8.746094 8.746094-4.824219 0-8.746094-3.914063-8.746094-8.746094v-207.394531c0-4.828125 3.921875-8.746094 8.746094-8.746094 4.832031 0 8.746094 3.917969 8.746094 8.746094zm36.234374-33.660156c0 4.832031-3.914062 8.746093-8.746093 8.746093-4.824219 0-8.746094-3.914062-8.746094-8.746093v-140.074219c0-4.824219 3.921875-8.746094 8.746094-8.746094 4.832031 0 8.746093 3.921875 8.746093 8.746094zm36.238282-33.664063c0 4.832032-3.917969 8.746094-8.75 8.746094-4.824219 0-8.746094-3.914062-8.746094-8.746094v-72.746094c0-4.832031 3.921875-8.746093 8.746094-8.746093 4.832031 0 8.75 3.914062 8.75 8.746093zm0 0"/></svg>